# Exported from Wings 3D 0.99.04a
mtllib rock1.mtl
o octahedron2
#69 vertices, 49 faces
v 2.00000000 0.0000000e+0 0.0000000e+0
v -2.00000000 0.0000000e+0 0.0000000e+0
v 0.0000000e+0 -0.59251383 0.0000000e+0
v 0.0000000e+0 0.0000000e+0 2.00000000
v 0.0000000e+0 0.0000000e+0 -2.00000000
v 0.39975361 -0.35565429 0.39975361
v 1.05819656 -0.16058601 0.39975361
v 0.39975361 -0.16058601 1.05819656
v -1.05819656 -0.16058601 0.39975361
v -0.39975361 -0.35565429 0.39975361
v -0.39975361 -0.16058601 1.05819656
v 0.40991880 0.94461823 -1.03597033
v 0.83774905 0.75251027 -0.20985111
v 1.25897233 0.25364442 -0.20391902
v 0.39886427 0.43469049 -1.45270203
v 1.05819656 -0.16058601 -0.39975361
v 0.39975361 -0.35565429 -0.39975361
v 0.39975361 -0.16058601 -1.05819656
v -0.39975361 -0.35565429 -0.39975361
v -1.05819656 -0.16058601 -0.39975361
v -0.39975361 -0.16058601 -1.05819656
v 1.17979552 0.47636686 0.43374774
v 0.95270900 0.75628562 0.43374774
v 0.43374774 0.75628562 0.95270900
v 0.43374774 0.47636686 1.17979552
v -0.97533603 0.98420985 0.22621521
v -1.57223355 0.24844263 0.22621521
v -0.22621521 0.24844263 1.57223355
v -0.22621521 0.98420985 0.97533603
v -1.29118132 0.41167507 -0.37484372
v -0.95913124 0.82097742 -0.37484372
v -0.37484372 0.82097742 -0.95913124
v -0.37484372 0.41167507 -1.29118132
v 1.39108074 0.28096674 6.5544597e-2
v 1.01266344 0.76484468 5.2555783e-2
v -1.4041944e-2 0.80200286 -1.31670674
v -1.4041944e-2 0.54396761 -1.57397740
v 1.67333333 0.0000000e+0 0.83666667
v 0.83666667 0.0000000e+0 1.67333333
v 1.67333333 0.0000000e+0 -0.83666667
v 0.83666667 0.0000000e+0 -1.67333333
v -1.67333333 0.0000000e+0 0.83666667
v -0.83666667 0.0000000e+0 1.67333333
v -1.67333333 0.0000000e+0 -0.83666667
v -0.83666667 0.0000000e+0 -1.67333333
v 0.79254311 1.17011878 -6.7728978e-2
v 0.84921455 1.17355405 1.7009717e-2
v 0.82070878 1.20148026 0.11865714
v -0.89726710 1.04342910 0.13978709
v -0.92598251 0.99554965 0.0000000e+0
v -0.84651506 1.01147230 -0.15046064
v -0.15644802 0.99069148 0.91231661
v 0.0000000e+0 0.87143351 0.93457620
v 0.17226406 0.90635872 0.84316621
v 0.15284580 1.12525359 -0.86979909
v -4.2677434e-3 1.10176590 -0.93685569
v -0.13478793 1.08462058 -0.83864904
v -0.58249080 1.06562284 -0.60269553
v 0.59091332 1.04407393 -0.56216412
v -0.63010510 1.10512122 0.60778908
v 0.62753225 1.07046242 0.55102513
v 0.34415211 1.23247897 0.34479420
v 0.52923258 1.35097756 1.7620329e-3
v 0.34747093 1.20975545 -0.34370978
v 2.9763125e-4 1.21499673 -0.53127941
v -0.34454858 1.23272179 -0.34378188
v -0.52989276 1.15726563 -1.1000741e-3
v -0.34443590 1.25545026 0.34812417
v 3.2361031e-3 1.02339972 0.52782917
vn 0.95680551 -0.27269087 -0.10081125
vn -0.96459461 -0.25384456 -7.1555408e-2
vn 7.5232982e-18 -1.00000000 0.0000000e+0
vn 0.11694697 -0.22610239 0.96705797
vn -0.10390782 -0.30553003 -0.94649594
vn 0.27324390 -0.92232074 0.27324390
vn 0.23133179 -0.94497154 0.23133179
vn 0.23133179 -0.94497154 0.23133179
vn -0.23133179 -0.94497154 0.23133179
vn -0.27324390 -0.92232074 0.27324390
vn -0.23133179 -0.94497154 0.23133179
vn 0.64530638 0.55594753 -0.52392940
vn 0.74641515 0.51727625 -0.41867614
vn 0.63132668 0.66404195 -0.40059321
vn 0.51418476 0.69748357 -0.49912994
vn 0.23133179 -0.94497154 -0.23133179
vn 0.27324390 -0.92232074 -0.27324390
vn 0.23133179 -0.94497154 -0.23133179
vn -0.27324390 -0.92232074 -0.27324390
vn -0.23133179 -0.94497154 -0.23133179
vn -0.23133179 -0.94497154 -0.23133179
vn 0.62225127 0.68907373 0.37145760
vn 0.66578491 0.60484173 0.43691753
vn 0.48944511 0.60382863 0.62915378
vn 0.44892542 0.68890651 0.56909910
vn -0.66819958 0.55636221 0.49393361
vn -0.57380435 0.71030267 0.40769925
vn -0.33970904 0.73864667 0.58223609
vn -0.44474814 0.58831240 0.67534259
vn -0.56917709 0.67137529 -0.47465004
vn -0.62033951 0.58386126 -0.52372219
vn -0.59614316 0.54419498 -0.59030937
vn -0.54808649 0.63410593 -0.54544557
vn 0.72690630 0.65271644 -0.21346774
vn 0.72690630 0.65271644 -0.21346774
vn -0.16944896 0.67391174 -0.71911753
vn -0.16944896 0.67391174 -0.71911753
vn 0.69086843 -0.21307658 0.69086843
vn 0.69086843 -0.21307658 0.69086843
vn 0.74203015 -0.16609425 -0.64946436
vn 0.74203015 -0.16609425 -0.64946436
vn -0.69916671 -0.14943834 0.69916671
vn -0.69916671 -0.14943834 0.69916671
vn -0.69261814 -0.20139568 -0.69261814
vn -0.69261814 -0.20139568 -0.69261814
vn 0.58611364 0.71283803 -0.38513989
vn 0.65068619 0.72778610 -0.21664456
vn 0.54962500 0.80463300 0.22467333
vn -0.56327744 0.80500973 0.18621992
vn -0.60533982 0.78800170 -0.11232557
vn -0.52792259 0.78942466 -0.31321949
vn -5.1819468e-2 0.82718239 0.55953912
vn 0.19738121 0.79772290 0.56980596
vn 0.27376174 0.78929207 0.54961126
vn 0.32432824 0.83289893 -0.44843123
vn -0.17283097 0.79985386 -0.57477235
vn -0.40141624 0.78828086 -0.46634567
vn -0.41952870 0.83471878 -0.35670747
vn 0.48449408 0.78854262 -0.37876908
vn -0.31898385 0.86812961 0.38026344
vn 0.25068859 0.80385009 0.53942586
vn 3.1737332e-2 0.93780793 0.34570079
vn 0.26804293 0.96244518 -4.3037967e-2
vn 0.18051641 0.96173423 -0.20610942
vn -4.3848160e-2 0.97802639 -0.20381787
vn -0.23929605 0.96213961 -0.13047899
vn -0.31583349 0.94781412 -4.3561341e-2
vn -9.4615668e-2 0.98235254 0.16134235
vn 7.9117332e-2 0.93836179 0.33647824
g octahedron2_default
usemtl default
f 1//1 7//7 6//6 3//3
f 1//1 14//14 13//13 46//46 47//47 35//35 34//34
f 1//1 16//16 18//18 5//5 41//41 40//40
f 1//1 22//22 25//25 4//4 39//39 38//38
f 2//2 9//9 11//11 4//4 43//43 42//42
f 2//2 20//20 19//19 3//3
f 2//2 27//27 26//26 49//49 50//50
f 2//2 30//30 33//33 5//5 45//45 44//44
f 3//3 6//6 8//8 4//4
f 3//3 10//10 9//9 2//2
f 3//3 17//17 16//16 1//1
f 3//3 19//19 21//21 5//5
f 4//4 11//11 10//10 3//3
f 5//5 18//18 17//17 3//3
f 7//7 8//8 6//6
f 10//10 11//11 9//9
f 12//12 55//55 59//59 46//46 13//13
f 13//13 14//14 15//15 12//12
f 15//15 5//5 37//37 36//36 56//56 55//55 12//12
f 17//17 18//18 16//16
f 20//20 21//21 19//19
f 23//23 24//24 25//25 22//22
f 23//23 48//48 61//61 54//54 24//24
f 24//24 54//54 53//53 4//4 25//25
f 27//27 28//28 29//29 26//26
f 28//28 4//4 53//53 52//52 29//29
f 29//29 52//52 60//60 49//49 26//26
f 31//31 32//32 33//33 30//30
f 31//31 51//51 58//58 57//57 32//32
f 32//32 57//57 56//56 36//36 37//37 5//5 33//33
f 34//34 35//35 47//47 48//48 23//23 22//22 1//1
f 38//38 39//39 4//4 8//8 7//7 1//1
f 40//40 41//41 5//5 15//15 14//14 1//1
f 42//42 43//43 4//4 28//28 27//27 2//2
f 44//44 45//45 5//5 21//21 20//20 2//2
f 47//47 46//46 63//63 48//48
f 48//48 63//63 62//62 61//61
f 49//49 67//67 51//51 50//50
f 50//50 51//51 31//31 30//30 2//2
f 51//51 67//67 66//66 58//58
f 52//52 69//69 68//68 60//60
f 53//53 54//54 69//69 52//52
f 55//55 65//65 64//64 59//59
f 56//56 57//57 65//65 55//55
f 58//58 66//66 65//65 57//57
f 59//59 64//64 63//63 46//46
f 60//60 68//68 67//67 49//49
f 61//61 62//62 69//69 54//54
f 63//63 64//64 65//65 66//66 67//67 68//68 69//69 62//62
